<?xml version="1.0" encoding="utf-8"?>
<!-- Generator: Adobe Illustrator 26.2.0, SVG Export Plug-In . SVG Version: 6.00 Build 0)  -->
<svg version="1.0" id="Calque_1" xmlns="http://www.w3.org/2000/svg" xmlns:xlink="http://www.w3.org/1999/xlink" x="0px" y="0px"
	 viewBox="0 0 512 512" style="enable-background:new 0 0 512 512;" xml:space="preserve">
<path id="Search" style="fill:#758a95;" d="M506.44,479.63L368.79,341.97c30.18-36.19,48.39-82.68,48.39-133.38
	C417.18,93.57,323.61,0,208.59,0S0,93.57,0,208.59s93.57,208.59,208.59,208.59c50.7,0,97.19-18.21,133.38-48.39l137.66,137.66
	c3.7,3.7,8.56,5.56,13.41,5.56c4.85,0,9.7-1.85,13.41-5.56C513.85,499.03,513.85,487.03,506.44,479.63L506.44,479.63z M37.93,208.59
	c0-94.1,76.55-170.67,170.67-170.67s170.67,76.56,170.67,170.67S302.7,379.26,208.59,379.26S37.93,302.69,37.93,208.59L37.93,208.59
	z"/>
</svg>
